<?xml version="1.0" encoding="UTF-8" standalone="no"?>
<!DOCTYPE svg PUBLIC "-//W3C//DTD SVG 1.1//EN"
 "http://www.w3.org/Graphics/SVG/1.1/DTD/svg11.dtd">
<!-- Generated by graphviz version 9.0.0 (20230911.1827)
 -->
<!-- Title: clients Pages: 1 -->
<svg width="230pt" height="446pt"
 viewBox="0.00 0.00 229.50 446.00" xmlns="http://www.w3.org/2000/svg" xmlns:xlink="http://www.w3.org/1999/xlink">
<g id="graph0" class="graph" transform="scale(1 1) rotate(0) translate(4 442)">
<title>clients</title>
<polygon fill="white" stroke="none" points="-4,4 -4,-442 225.5,-442 225.5,4 -4,4"/>
<!-- clients -->
<g id="node1" class="node">
<title>clients</title>
<polygon fill="none" stroke="black" points="22.12,-0.5 22.12,-95.25 199.38,-95.25 199.38,-0.5 22.12,-0.5"/>
<text text-anchor="middle" x="110.75" y="-77.95" font-family="Times New Roman,serif" font-size="14.00">clients (25 rows)</text>
<polyline fill="none" stroke="black" points="22.12,-71.5 199.38,-71.5"/>
<text text-anchor="start" x="30.12" y="-54.2" font-family="Times New Roman,serif" font-size="14.00">client_id : Integer; index</text>
<text text-anchor="start" x="30.12" y="-38.45" font-family="Times New Roman,serif" font-size="14.00">joined : Datetime; time_index</text>
<text text-anchor="start" x="30.12" y="-22.7" font-family="Times New Roman,serif" font-size="14.00">income : Integer</text>
<text text-anchor="start" x="30.12" y="-6.95" font-family="Times New Roman,serif" font-size="14.00">credit_score : Integer</text>
</g>
<!-- loans -->
<g id="node2" class="node">
<title>loans</title>
<polygon fill="none" stroke="black" points="11.62,-132.25 11.62,-290 209.88,-290 209.88,-132.25 11.62,-132.25"/>
<text text-anchor="middle" x="110.75" y="-272.7" font-family="Times New Roman,serif" font-size="14.00">loans (443 rows)</text>
<polyline fill="none" stroke="black" points="11.62,-266.25 209.88,-266.25"/>
<text text-anchor="start" x="19.62" y="-248.95" font-family="Times New Roman,serif" font-size="14.00">client_id : Integer; foreign_key</text>
<text text-anchor="start" x="19.62" y="-233.2" font-family="Times New Roman,serif" font-size="14.00">loan_type : Categorical</text>
<text text-anchor="start" x="19.62" y="-217.45" font-family="Times New Roman,serif" font-size="14.00">loan_amount : Integer</text>
<text text-anchor="start" x="19.62" y="-201.7" font-family="Times New Roman,serif" font-size="14.00">repaid : Integer</text>
<text text-anchor="start" x="19.62" y="-185.95" font-family="Times New Roman,serif" font-size="14.00">loan_id : Integer; index</text>
<text text-anchor="start" x="19.62" y="-170.2" font-family="Times New Roman,serif" font-size="14.00">loan_start : Datetime; time_index</text>
<text text-anchor="start" x="19.62" y="-154.45" font-family="Times New Roman,serif" font-size="14.00">loan_end : Datetime</text>
<text text-anchor="start" x="19.62" y="-138.7" font-family="Times New Roman,serif" font-size="14.00">rate : Double</text>
</g>
<!-- loans&#45;&gt;clients -->
<g id="edge1" class="edge">
<title>loans&#45;&gt;clients</title>
<path fill="none" stroke="black" d="M110.75,-131.89C110.75,-131.89 110.75,-106.82 110.75,-106.82"/>
<polygon fill="black" stroke="black" points="114.25,-106.82 110.75,-96.82 107.25,-106.82 114.25,-106.82"/>
<text text-anchor="middle" x="87.12" y="-106.06" font-family="Times New Roman,serif" font-size="14.00">client_id</text>
</g>
<!-- payments -->
<g id="node3" class="node">
<title>payments</title>
<polygon fill="none" stroke="black" points="0,-327 0,-437.5 221.5,-437.5 221.5,-327 0,-327"/>
<text text-anchor="middle" x="110.75" y="-420.2" font-family="Times New Roman,serif" font-size="14.00">payments (3456 rows)</text>
<polyline fill="none" stroke="black" points="0,-413.75 221.5,-413.75"/>
<text text-anchor="start" x="8" y="-396.45" font-family="Times New Roman,serif" font-size="14.00">payment_id : Integer; index</text>
<text text-anchor="start" x="8" y="-380.7" font-family="Times New Roman,serif" font-size="14.00">loan_id : Integer; foreign_key</text>
<text text-anchor="start" x="8" y="-364.95" font-family="Times New Roman,serif" font-size="14.00">payment_amount : Integer</text>
<text text-anchor="start" x="8" y="-349.2" font-family="Times New Roman,serif" font-size="14.00">payment_date : Datetime; time_index</text>
<text text-anchor="start" x="8" y="-333.45" font-family="Times New Roman,serif" font-size="14.00">missed : Integer</text>
</g>
<!-- payments&#45;&gt;loans -->
<g id="edge2" class="edge">
<title>payments&#45;&gt;loans</title>
<path fill="none" stroke="black" d="M110.75,-326.69C110.75,-326.69 110.75,-301.85 110.75,-301.85"/>
<polygon fill="black" stroke="black" points="114.25,-301.85 110.75,-291.85 107.25,-301.85 114.25,-301.85"/>
<text text-anchor="middle" x="90.12" y="-300.97" font-family="Times New Roman,serif" font-size="14.00">loan_id</text>
</g>
</g>
</svg>
